<?xml version="1.0" encoding="UTF-8"?><svg xmlns="http://www.w3.org/2000/svg" clip-rule="evenodd" fill-rule="evenodd" height="3173" image-rendering="optimizeQuality" shape-rendering="geometricPrecision" text-rendering="geometricPrecision" viewBox="0 0 4487 3173" width="4487"><g><g><g><path d="M165 941L165 688 0 853 0 1106z" fill="#f8cd5c"/><path d="M0 853L165 688 165 165 688 165 853 0 0 0z" fill="#1d215d"/><path d="M688 165L941 165 1106 0 853 0z" fill="#f8cd5c"/></g><g><path d="M4322 941L4322 688 4487 853 4487 1106z" fill="#f8cd5c"/><path d="M4487 853L4322 688 4322 165 3799 165 3634 0 4487 0z" fill="#1d215d"/><path d="M3799 165L3547 165 3382 0 3634 0z" fill="#f8cd5c"/></g></g><g><g><path d="M165 2232L165 2485 0 2320 0 2067z" fill="#f8cd5c"/><path d="M0 2320L165 2485 165 3008 688 3008 853 3173 0 3173z" fill="#1d215d"/><path d="M688 3008L941 3008 1106 3173 853 3173z" fill="#f8cd5c"/></g><g><path d="M4322 2232L4322 2485 4487 2320 4487 2067z" fill="#f8cd5c"/><path d="M4487 2320L4322 2485 4322 3008 3799 3008 3634 3173 4487 3173z" fill="#1d215d"/><path d="M3799 3008L3547 3008 3382 3173 3634 3173z" fill="#f8cd5c"/></g></g><path d="M77 77l4333 0 0 3019 -4333 0 0 -3019zm21 21l4291 0 0 2977 -4291 0 0 -2977z" fill="#cdab43"/></g></svg>